<mxfile host="app.diagrams.net" modified="2023-11-07T09:55:32.462Z" agent="Mozilla/5.0 (Windows NT 10.0; Win64; x64) AppleWebKit/537.36 (KHTML, like Gecko) Chrome/116.0.0.0 Safari/537.36" etag="MQZEw9Fnq97Ro2FocmBU" version="22.0.8" type="device">
  <diagram name="Trang-1" id="lRiApYSuJ2Jd4ljKn33d">
    <mxGraphModel dx="1246" dy="559" grid="1" gridSize="10" guides="1" tooltips="1" connect="1" arrows="1" fold="1" page="1" pageScale="1" pageWidth="827" pageHeight="1169" math="0" shadow="0">
      <root>
        <mxCell id="0" />
        <mxCell id="1" parent="0" />
        <mxCell id="iPahOJeg1DOeiTqV8k4q-1" style="edgeStyle=orthogonalEdgeStyle;rounded=0;orthogonalLoop=1;jettySize=auto;html=1;exitX=0.5;exitY=1;exitDx=0;exitDy=0;entryX=0.5;entryY=0;entryDx=0;entryDy=0;" edge="1" parent="1" source="iPahOJeg1DOeiTqV8k4q-2" target="iPahOJeg1DOeiTqV8k4q-3">
          <mxGeometry relative="1" as="geometry" />
        </mxCell>
        <mxCell id="iPahOJeg1DOeiTqV8k4q-2" value="BEGIN" style="ellipse;whiteSpace=wrap;html=1;" vertex="1" parent="1">
          <mxGeometry x="135" y="50" width="120" height="80" as="geometry" />
        </mxCell>
        <mxCell id="iPahOJeg1DOeiTqV8k4q-3" value="INPUT&amp;nbsp; Math, Physics ,&amp;nbsp; Chemistry&amp;nbsp;" style="shape=parallelogram;perimeter=parallelogramPerimeter;whiteSpace=wrap;html=1;fixedSize=1;" vertex="1" parent="1">
          <mxGeometry x="50" y="210" width="290" height="60" as="geometry" />
        </mxCell>
        <mxCell id="iPahOJeg1DOeiTqV8k4q-4" style="edgeStyle=orthogonalEdgeStyle;rounded=0;orthogonalLoop=1;jettySize=auto;html=1;exitX=0.5;exitY=1;exitDx=0;exitDy=0;entryX=0.5;entryY=0;entryDx=0;entryDy=0;" edge="1" parent="1" target="iPahOJeg1DOeiTqV8k4q-8">
          <mxGeometry relative="1" as="geometry">
            <mxPoint x="195" y="450" as="sourcePoint" />
          </mxGeometry>
        </mxCell>
        <mxCell id="iPahOJeg1DOeiTqV8k4q-5" value="Average =&amp;nbsp; ( Math + Physics + Chemistry) /&amp;nbsp; 3" style="rounded=0;whiteSpace=wrap;html=1;" vertex="1" parent="1">
          <mxGeometry x="25" y="380" width="340" height="70" as="geometry" />
        </mxCell>
        <mxCell id="iPahOJeg1DOeiTqV8k4q-6" style="edgeStyle=orthogonalEdgeStyle;rounded=0;orthogonalLoop=1;jettySize=auto;html=1;exitX=0.5;exitY=1;exitDx=0;exitDy=0;entryX=0.5;entryY=0;entryDx=0;entryDy=0;" edge="1" parent="1" source="iPahOJeg1DOeiTqV8k4q-3">
          <mxGeometry relative="1" as="geometry">
            <mxPoint x="195" y="258.31" as="sourcePoint" />
            <mxPoint x="195" y="380" as="targetPoint" />
          </mxGeometry>
        </mxCell>
        <mxCell id="iPahOJeg1DOeiTqV8k4q-7" style="edgeStyle=orthogonalEdgeStyle;rounded=0;orthogonalLoop=1;jettySize=auto;html=1;exitX=0.5;exitY=1;exitDx=0;exitDy=0;entryX=0.5;entryY=0;entryDx=0;entryDy=0;" edge="1" parent="1" source="iPahOJeg1DOeiTqV8k4q-8" target="iPahOJeg1DOeiTqV8k4q-9">
          <mxGeometry relative="1" as="geometry" />
        </mxCell>
        <mxCell id="iPahOJeg1DOeiTqV8k4q-8" value="DISPLAY Average" style="shape=parallelogram;perimeter=parallelogramPerimeter;whiteSpace=wrap;html=1;fixedSize=1;" vertex="1" parent="1">
          <mxGeometry x="72" y="520" width="246" height="60" as="geometry" />
        </mxCell>
        <mxCell id="iPahOJeg1DOeiTqV8k4q-9" value="END" style="ellipse;whiteSpace=wrap;html=1;" vertex="1" parent="1">
          <mxGeometry x="135" y="650" width="120" height="80" as="geometry" />
        </mxCell>
        <mxCell id="iPahOJeg1DOeiTqV8k4q-10" value="PSEUDO - CODE" style="swimlane;" vertex="1" parent="1">
          <mxGeometry x="500" y="110" width="270" height="230" as="geometry" />
        </mxCell>
        <mxCell id="iPahOJeg1DOeiTqV8k4q-11" value="&lt;div style=&quot;text-align: justify;&quot;&gt;&lt;span style=&quot;background-color: initial;&quot;&gt;BEGIN&lt;/span&gt;&lt;/div&gt;&lt;div style=&quot;text-align: justify;&quot;&gt;&lt;span style=&quot;background-color: initial;&quot;&gt;&lt;br&gt;&lt;/span&gt;&lt;/div&gt;&lt;div style=&quot;text-align: justify;&quot;&gt;&lt;span style=&quot;background-color: initial;&quot;&gt;INPUT&amp;nbsp; Math, Physics, Chemistry&lt;/span&gt;&lt;/div&gt;&lt;div style=&quot;text-align: justify;&quot;&gt;&lt;span style=&quot;background-color: initial;&quot;&gt;&lt;br&gt;&lt;/span&gt;&lt;/div&gt;&lt;div style=&quot;text-align: justify;&quot;&gt;&lt;span style=&quot;background-color: initial;&quot;&gt;Average =&amp;nbsp; (Math + Physics + Chemistry) / 3&lt;/span&gt;&lt;/div&gt;&lt;div style=&quot;text-align: justify;&quot;&gt;&lt;span style=&quot;background-color: initial;&quot;&gt;&lt;br&gt;&lt;/span&gt;&lt;/div&gt;&lt;div style=&quot;text-align: justify;&quot;&gt;&lt;span style=&quot;background-color: initial;&quot;&gt;DISPLAY Average&lt;/span&gt;&lt;/div&gt;&lt;div style=&quot;text-align: justify;&quot;&gt;&lt;span style=&quot;background-color: initial;&quot;&gt;&lt;br&gt;&lt;/span&gt;&lt;/div&gt;&lt;div style=&quot;text-align: justify;&quot;&gt;&lt;span style=&quot;background-color: initial;&quot;&gt;END&lt;/span&gt;&lt;/div&gt;" style="text;html=1;align=center;verticalAlign=middle;resizable=0;points=[];autosize=1;strokeColor=none;fillColor=none;" vertex="1" parent="iPahOJeg1DOeiTqV8k4q-10">
          <mxGeometry x="10" y="60" width="260" height="140" as="geometry" />
        </mxCell>
      </root>
    </mxGraphModel>
  </diagram>
</mxfile>
